<svg id="レイヤー_1" data-name="レイヤー 1" xmlns="http://www.w3.org/2000/svg" viewBox="0 0 30.5 30.5"><defs><style>.cls-1{fill:#fff;}.cls-2{fill:#404040;}</style></defs><path id="ytp-id-284" class="cls-1" d="M41.05,66.46,59.56,53.4,41.05,40.33ZM62.79,40.38v26.1h4.36V40.38Z" transform="translate(-41.05 -40.33)"/><path id="ytp-id-284-2" data-name="ytp-id-284" class="cls-1" d="M41.05,66.46,59.56,53.4,41.05,40.33ZM62.79,40.38v26.1h4.36V40.38Z" transform="translate(-41.05 -40.33)"/><path class="cls-2" d="M71.34,66.92l-5.65-5.65,4.12-2.38a.71.71,0,0,0,.36-.68.72.72,0,0,0-.45-.62l-17.4-6.94a.73.73,0,0,0-1,.94L58.31,69a.72.72,0,0,0,.62.46.73.73,0,0,0,.69-.37L62,65l5.65,5.65a.74.74,0,0,0,1,0L71.34,68A.74.74,0,0,0,71.34,66.92Z" transform="translate(-41.05 -40.33)"/></svg>